# AST/ASF file generated using VICON BodyLanguage
# -----------------------------------------------
:version 1.10
:name VICON
:units
  mass 1.0
  length 0.45
  angle deg
:documentation
   .ast/.asf automatically generated from VICON data using
   VICON BodyBuilder and BodyLanguage model FoxedUp or BRILLIANT.MOD
:root
   order TX TY TZ RX RY RZ
   axis XYZ
   position 0 0 0  
   orientation 0 0 0 
:bonedata
  begin
     id 1 
     name lhipjoint
     direction 0.710188 -0.616876 0.339259 
     length 2.5669 
     axis 0 0 0  XYZ
  end
  begin
     id 2 
     name lfemur
     direction 0.34202 -0.939693 0  
     length 7.12796  
     axis 0 0 20  XYZ
    dof rx ry rz
    limits (-160.0 20.0)
           (-70.0 70.0)
           (-60.0 70.0)
  end
  begin
     id 3 
     name ltibia
     direction 0.34202 -0.939693 0   
     length 7.58108   
     axis 0 0 20   XYZ
    dof rx
    limits (-10.0 170.0)
  end
  begin
     id 4 
     name lfoot
     direction 0.0669471 -0.183936 0.980656   
     length 2.17365   
     axis -90 7.62852e-016 20   XYZ
    dof rx rz
    limits (-45.0 90.0)
           (-70.0 20.0)
  end
  begin
     id 5 
     name ltoes
     direction 1.53508e-011 -4.21705e-011 1   
     length 1.09427   
     axis -90 7.62852e-016 20   XYZ
    dof rx
    limits (-90.0 20.0)
  end
  begin
     id 6 
     name rhipjoint
     direction -0.700191 -0.625589 0.34405   
     length 2.53115  
     axis 0 0 0  XYZ 
  end
  begin
     id 7 
     name rfemur
     direction -0.34202 -0.939693 0   
     length 7.33006   
     axis 0 0 -20   XYZ
    dof rx ry rz
    limits (-160.0 20.0)
           (-70.0 70.0)
           (-70.0 60.0)
  end
  begin
     id 8 
     name rtibia
     direction -0.34202 -0.939693 0   
     length 7.64926   
     axis 0 0 -20   XYZ
    dof rx
    limits (-10.0 170.0)
 end
 begin
     id 9 
     name rfoot
     direction -0.0688927 -0.189281 0.979503   
     length 2.20493  
     axis -90 -7.62852e-016 -20   XYZ
    dof rx rz
    limits (-45.0 90.0)
           (-20.0 70.0)
  end
  begin
     id 10 
     name rtoes
     direction -1.53567e-011 -4.21933e-011 1   
     length 1.10919   
     axis -90 -7.62852e-016 -20   XYZ
    dof rx
    limits (-90.0 20.0)
  end
  begin
     id 11 
     name lowerback
     direction -0.0167868 0.989873 -0.140959   
     length 2.14596   
     axis 0 0 0   XYZ
    dof rx ry rz
    limits (-20.0 45.0)
           (-30.0 30.0)
           (-30.0 30.0)
  end
  begin
     id 12 
     name upperback
     direction 0.0129109 0.998033 0.0613525   
     length 2.10457   
     axis 0 0 0   XYZ
    dof rx ry rz
    limits (-20.0 45.0)
           (-30.0 30.0)
           (-30.0 30.0)
  end
  begin
     id 13 
     name thorax
     direction 0.0177047 0.991119 0.131797   
     length 2.17652   
     axis 0 0 0   XYZ
    dof rx ry rz
    limits (-20.0 45.0)
           (-30.0 30.0)
           (-30.0 30.0)
  end
  begin
     id 14 
     name lowerneck
     direction -0.0336893 0.997548 0.0613464   
     length 1.8912   
     axis 0 0 0   XYZ
    dof rx ry rz
    limits (-20.0 45.0)
           (-30.0 30.0)
           (-30.0 30.0)
  end
  begin
     id 15 
     name upperneck
     direction 0.0435909 0.997179 -0.0611028   
     length 1.8829   
     axis 0 0 0   XYZ
    dof rx ry rz
    limits (-20.0 45.0)
           (-30.0 30.0)
           (-30.0 30.0)
  end
  begin
     id 16
     name head
     direction 0.0175076 0.999444 -0.0283782  
     length 1.93197  
     axis 0 0 0   XYZ
    dof rx ry rz
    limits (-20.0 45.0)
           (-30.0 30.0)
           (-30.0 30.0)
  end
  begin
     id 17 
     name lclavicle
     direction 0.919164 0.389875 0.0559876  
     length 3.60004  
     axis 0 0 0   XYZ
    dof ry rz
    limits (-20.0 10.0)
           (0.0 20.0)
  end
  begin
     id 18 
     name lhumerus
     direction 1 -4.48958e-011 6.89191e-027   
     length 5.43301   
     axis 180 -30 -90   XYZ
    dof rx ry rz
    limits (-60.0 90.0)
           (-90.0 90.0)
           (-90.0 90.0)
  end
  begin
     id 19
     name lradius
     direction 1 -4.4897e-011 3.24727e-027   
     length 3.15936   
     axis 180 -30 -90   XYZ
    dof rx
    limits (-10.0 170.0)
  end
  begin
     id 20
     name lwrist
     direction 1 -4.4897e-011 9.00228e-027   
     length 1.57968   
     axis -6.29373e-015 90 90   XYZ
    dof ry
    limits (-180.0 0.0)
 end
  begin
     id 21 
     name lhand
     direction 1 -4.48968e-011 1.80042e-026   
     length 0.712827   
     axis -1.14882e-014 90 90   XYZ
    dof rx rz
    limits (-90.0 90.0)
           (-45.0 45.0)
  end
  begin
     id 22 
     name lfingers
     direction 1 -4.49019e-011 3.60267e-026   
     length 0.574699   
     axis -2.29769e-014 90 90   XYZ
    dof rx
    limits (0.0 90.0)
  end
  begin
     id 23
     name lthumb
     direction 0.707107 -6.3498e-011 0.707107   
     length 0.825157   
     axis -90 45 5.37419e-014   XYZ
    dof rx rz
    limits (-45.0 45.0)
           (-45.0 45.0)
  end
  begin
     id 24 
     name rclavicle
     direction -0.890334 0.455305 -0.00132111   
     length 3.51494  
     axis 0 0 0   XYZ 
    dof ry rz
    limits (-10.0 20.0)
           (-20.0 0.0)
  end
  begin
     id 25 
     name rhumerus
     direction -1 -4.48967e-011 5.07175e-028  
     length 5.34194   
     axis 180 30 90   XYZ
    dof rx ry rz
    limits (-90.0 60.0)
           (-90.0 90.0)
           (-90.0 90.0)
  end
  begin
     id 26 
     name rradius
     direction -1 -4.48955e-011 3.30467e-027   
     length 3.19351   
     axis 180 30 90   XYZ
    dof rx
    limits (-10.0 170.0)
  end
  begin
     id 27 
     name rwrist
     direction -1 -4.48968e-011 9.00208e-027   
     length 1.59676   
     axis -6.29373e-015 -90 -90   XYZ
    dof ry
    limits (-180.0 0.0)
  end
  begin
     id 28
     name rhand
     direction -1 -4.49e-011 1.80099e-026   
     length 0.743862   
     axis -1.14882e-014 -90 -90   XYZ
    dof rx rz
    limits (-90.0 90.0)
           (-45.0 45.0)
  end
  begin
     id 29
     name rfingers
     direction -1 -4.49009e-011 3.6023e-026   
     length 0.599721   
     axis -2.29769e-014 -90 -90   XYZ
    dof rx
    limits (0.0 90.0)
  end
  begin
     id 30
     name rthumb
     direction -0.707107 -6.35025e-011 0.707107   
     length 0.861083   
     axis -90 -45 -5.37419e-014   XYZ
    dof rx rz
    limits (-45.0 45.0)
           (-45.0 45.0)
  end
:hierarchy
  begin
    root lhipjoint rhipjoint lowerback
    lhipjoint lfemur
    lfemur ltibia
    ltibia lfoot
    lfoot ltoes
    rhipjoint rfemur
    rfemur rtibia
    rtibia rfoot
    rfoot rtoes
    lowerback upperback
    upperback thorax
    thorax lowerneck lclavicle rclavicle
    lowerneck upperneck
    upperneck head
    lclavicle lhumerus
    lhumerus lradius
    lradius lwrist
    lwrist lhand lthumb
    lhand lfingers
    rclavicle rhumerus
    rhumerus rradius
    rradius rwrist
    rwrist rhand rthumb
    rhand rfingers
  end

#!OML:ASF H:\Martial Arts Walks\Project 1\Capture day 1\Session 1\male.ASF
:FULLY-SPECIFIED
:DEGREES
63
root -1.37976 13.8427 -38.638 2.12203 45.0192 1.45837
lowerback 11.674 -0.594896 -8.06038
upperback -3.50737 -2.04319 0.201778
thorax -10.1208 -0.459765 5.18059
lowerneck 4.7102 -14.8295 -15.4323
upperneck 5.98124 -21.3001 14.5685
head 4.24879 -10.7337 5.79314
rclavicle 1.03287e-013 1.59028e-015
rhumerus -3.80643 -16.0619 -68.9505
rradius 88.0289
rwrist 17.9762
rhand -43.0457 -33.8105
rfingers 7.12502
rthumb -15.9023 -63.1776
lclavicle 1.03287e-013 1.59028e-015
lhumerus -53.0466 -44.2908 115.837
lradius 107.108
lwrist 83.8539
lhand 8.23283 38.5601
lfingers 7.12502
lthumb 33.4484 65.4646
rfemur -60.82 -37.5257 12.2605
rtibia 66.9321
rfoot -1.67758 9.55135
rtoes 7.41993
lfemur -25.1819 30.6547 -12.3066
ltibia 80.4143
lfoot -38.3852 21.5227
ltoes -16.8008
64
root -1.3802 13.8422 -38.6378 2.08901 45.0075 1.4341
lowerback 11.6779 -0.586863 -8.04859
upperback -3.50376 -2.03029 0.207154
thorax -10.121 -0.454231 5.17739
lowerneck 4.70867 -14.829 -15.427
upperneck 6.01176 -21.2996 14.5416
head 4.2546 -10.7333 5.78363
rclavicle -2.56494e-014 -1.94809e-014
rhumerus -3.81547 -16.0547 -68.9393
rradius 88.0162
rwrist 17.9806
rhand -43.0475 -33.8046
rfingers 7.12502
rthumb -15.9041 -63.1716
lclavicle -2.56494e-014 -1.94809e-014
lhumerus -53.0385 -44.3304 115.841
lradius 107.098
lwrist 83.8589
lhand 8.23216 38.5602
lfingers 7.12502
lthumb 33.4477 65.4648
rfemur -60.8076 -37.5179 12.2777
rtibia 66.9323
rfoot -1.68157 9.5539
rtoes 7.42462
lfemur -25.1655 30.6611 -12.2748
ltibia 80.424
lfoot -38.3906 21.5173
ltoes -16.7896
65
root -1.38062 13.8418 -38.6376 2.06054 44.9984 1.40926
lowerback 11.6764 -0.579565 -8.0356
upperback -3.50138 -2.01765 0.213447
thorax -10.1194 -0.448925 5.1744
lowerneck 4.70682 -14.8283 -15.4229
upperneck 6.03981 -21.2986 14.517
head 4.26002 -10.7328 5.77503
rclavicle 3.0265e-014 1.43125e-014
rhumerus -3.82508 -16.0473 -68.9247
rradius 88.0057
rwrist 17.991
rhand -43.0496 -33.8006
rfingers 7.12502
rthumb -15.9061 -63.1673
lclavicle 3.0265e-014 1.43125e-014
lhumerus -53.0293 -44.3711 115.847
lradius 107.088
lwrist 83.8561
lhand 8.24646 38.5597
lfingers 7.12502
lthumb 33.4613 65.4614
rfemur -60.801 -37.5142 12.2991
rtibia 66.9319
rfoot -1.68466 9.55781
rtoes 7.43095
lfemur -25.1561 30.6631 -12.247
ltibia 80.4336
lfoot -38.3918 21.5217
ltoes -16.7869
66
root -1.38099 13.8415 -38.6375 2.03954 44.9926 1.38804
lowerback 11.6704 -0.573241 -8.0236
upperback -3.50036 -2.0061 0.219786
thorax -10.1165 -0.444103 5.17209
lowerneck 4.70551 -14.827 -15.4201
upperneck 6.06354 -21.2968 14.4953
head 4.26439 -10.7319 5.76774
rclavicle -2.16054e-014 1.31198e-014
rhumerus -3.83553 -16.0398 -68.9066
rradius 87.9987
rwrist 18.0032
rhand -43.0505 -33.7972
rfingers 7.12502
rthumb -15.9069 -63.1639
lclavicle -2.16054e-014 1.31198e-014
lhumerus -53.0195 -44.4107 115.855
lradius 107.079
lwrist 83.8447
lhand 8.27445 38.5511
lfingers 7.12502
lthumb 33.4879 65.4471
rfemur -60.8006 -37.5156 12.3212
rtibia 66.9315
rfoot -1.6868 9.56369
rtoes 7.43853
lfemur -25.1539 30.6594 -12.2272
ltibia 80.4425
lfoot -38.3901 21.5337
ltoes -16.7904
67
root -1.38133 13.8412 -38.6375 2.02659 44.9898 1.37214
lowerback 11.6609 -0.567794 -8.01344
upperback -3.50058 -1.99578 0.22567
thorax -10.1126 -0.439781 5.17046
lowerneck 4.70545 -14.8249 -15.4182
upperneck 6.08131 -21.2938 14.4776
head 4.26714 -10.7304 5.76214
rclavicle 8.95028e-014 1.07344e-014
rhumerus -3.84712 -16.0323 -68.8855
rradius 87.9964
rwrist 18.0131
rhand -43.0497 -33.7934
rfingers 7.12502
rthumb -15.9062 -63.1601
lclavicle 8.95028e-014 1.07344e-014
lhumerus -53.0095 -44.4478 115.864
lradius 107.072
lwrist 83.8259
lhand 8.31292 38.5339
lfingers 7.12502
lthumb 33.5245 65.4219
rfemur -60.8056 -37.522 12.3419
rtibia 66.9313
rfoot -1.68821 9.57157
rtoes 7.44527
lfemur -25.1579 30.6503 -12.2162
ltibia 80.4504
lfoot -38.3864 21.5509
ltoes -16.7992
68
root -1.38167 13.841 -38.6376 2.01976 44.9891 1.36023
lowerback 11.6497 -0.562945 -8.00444
upperback -3.50204 -1.98638 0.231233
thorax -10.109 -0.435785 5.16928
lowerneck 4.70721 -14.822 -15.4167
upperneck 6.09252 -21.2897 14.4638
head 4.26792 -10.7286 5.75822
rclavicle -2.75689e-014 -1.35174e-014
rhumerus -3.85966 -16.025 -68.8623
rradius 87.9989
rwrist 18.0166
rhand -43.047 -33.7883
rfingers 7.12502
rthumb -15.9036 -63.1553
lclavicle -2.75689e-014 -1.35174e-014
lhumerus -53.0001 -44.4812 115.872
lradius 107.068
lwrist 83.8018
lhand 8.35525 38.5075
lfingers 7.12502
lthumb 33.5647 65.3869
rfemur -60.8149 -37.5316 12.3615
rtibia 66.9311
rfoot -1.68909 9.58082
rtoes 7.44881
lfemur -25.1667 30.6371 -12.2119
ltibia 80.4575
lfoot -38.3829 21.5693
ltoes -16.809
69
root -1.38205 13.8408 -38.6379 2.01659 44.9896 1.35048
lowerback 11.6388 -0.558506 -7.99582
upperback -3.50486 -1.97768 0.236747
thorax -10.107 -0.431989 5.16843
lowerneck 4.71128 -14.8183 -15.4153
upperneck 6.09737 -21.2845 14.4534
head 4.26662 -10.7263 5.75585
rclavicle -6.88789e-014 -4.77083e-015
rhumerus -3.87304 -16.0176 -68.8382
rradius 88.0057
rwrist 18.0125
rhand -43.0428 -33.7815
rfingers 7.12502
rthumb -15.8996 -63.1488
lclavicle -6.88789e-014 -4.77083e-015
lhumerus -52.9913 -44.5093 115.879
lradius 107.066
lwrist 83.7748
lhand 8.39365 38.4757
lfingers 7.12502
lthumb 33.6012 65.3471
rfemur -60.8269 -37.5425 12.3808
rtibia 66.9303
rfoot -1.68945 9.59073
rtoes 7.44582
lfemur -25.179 30.6216 -12.2116
ltibia 80.4642
lfoot -38.3818 21.5842
ltoes -16.8126
70
root -1.3825 13.8406 -38.6383 2.01435 44.9907 1.34073
lowerback 11.6302 -0.554154 -7.98653
upperback -3.50926 -1.96929 0.242447
thorax -10.1082 -0.428169 5.16758
lowerneck 4.71762 -14.8141 -15.4134
upperneck 6.09745 -21.2785 14.4453
head 4.26362 -10.7237 5.75452
rclavicle -3.66509e-015 2.42517e-014
rhumerus -3.88749 -16.0106 -68.8141
rradius 88.0156
rwrist 18.0013
rhand -43.0373 -33.7724
rfingers 7.12502
rthumb -15.8943 -63.1401
lclavicle -3.66509e-015 2.42517e-014
lhumerus -52.9837 -44.5316 115.882
lradius 107.065
lwrist 83.7474
lhand 8.42288 38.441
lfingers 7.12502
lthumb 33.629 65.3063
rfemur -60.8398 -37.5535 12.4006
rtibia 66.9286
rfoot -1.68939 9.60084
rtoes 7.43439
lfemur -25.1931 30.6056 -12.2123
ltibia 80.4711
lfoot -38.3827 21.5965
ltoes -16.8116
71
root -1.38305 13.8404 -38.6388 2.01113 44.9918 1.32931
lowerback 11.6253 -0.549649 -7.97596
upperback -3.51547 -1.96086 0.24856
thorax -10.1134 -0.424148 5.16662
lowerneck 4.72609 -14.8098 -15.4107
upperneck 6.09454 -21.2726 14.4384
head 4.25941 -10.7212 5.75374
rclavicle 2.97494e-014 1.59028e-014
rhumerus -3.90314 -16.0043 -68.791
rradius 88.0274
rwrist 17.9862
rhand -43.0317 -33.7623
rfingers 7.12502
rthumb -15.8889 -63.1304
lclavicle 2.97494e-014 1.59028e-014
lhumerus -52.9771 -44.5475 115.883
lradius 107.065
lwrist 83.7217
lhand 8.43981 38.4056
lfingers 7.12502
lthumb 33.6451 65.2675
rfemur -60.8527 -37.5632 12.4217
rtibia 66.9258
rfoot -1.68854 9.61064
rtoes 7.41594
lfemur -25.2082 30.5905 -12.2117
ltibia 80.4785
lfoot -38.3853 21.6063
ltoes -16.8043
72
root -1.38372 13.8402 -38.6394 2.00665 44.9929 1.31647
lowerback 11.6245 -0.544897 -7.96441
upperback -3.52366 -1.95243 0.25489
thorax -10.1234 -0.419885 5.16553
lowerneck 4.73642 -14.8058 -15.4074
upperneck 6.09079 -21.2672 14.4318
head 4.25471 -10.7191 5.75309
rclavicle -7.22334e-014 -7.15625e-015
rhumerus -3.92047 -15.9993 -68.7693
rradius 88.0402
rwrist 17.9714
rhand -43.0266 -33.7522
rfingers 7.12502
rthumb -15.884 -63.1208
lclavicle -7.22334e-014 -7.15625e-015
lhumerus -52.9712 -44.5571 115.88
lradius 107.063
lwrist 83.6993
lhand 8.44446 38.3688
lfingers 7.12502
lthumb 33.6495 65.2297
rfemur -60.8648 -37.5714 12.4434
rtibia 66.9219
rfoot -1.68648 9.61986
rtoes 7.39527
lfemur -25.2239 30.5768 -12.2098
ltibia 80.4866
lfoot -38.3884 21.615
ltoes -16.7934
73
root -1.38452 13.84 -38.64 2.00098 44.9943 1.30281
lowerback 11.6281 -0.539903 -7.95249
upperback -3.53369 -1.94411 0.261133
thorax -10.138 -0.415423 5.16434
lowerneck 4.74825 -14.8025 -15.4038
upperneck 6.08799 -21.263 14.4252
head 4.25019 -10.7175 5.75233
rclavicle 3.18242e-014 3.57812e-015
rhumerus -3.93953 -15.9962 -68.7499
rradius 88.0529
rwrist 17.9611
rhand -43.0226 -33.7434
rfingers 7.12502
rthumb -15.8801 -63.1122
lclavicle 3.18242e-014 3.57812e-015
lhumerus -52.9657 -44.5604 115.874
lradius 107.06
lwrist 83.6813
lhand 8.43834 38.3317
lfingers 7.12502
lthumb 33.6437 65.1938
rfemur -60.8754 -37.5781 12.4647
rtibia 66.9173
rfoot -1.68306 9.62817
rtoes 7.37808
lfemur -25.2395 30.5646 -12.2064
ltibia 80.4954
lfoot -38.3914 21.6225
ltoes -16.7787
74
root -1.38544 13.8398 -38.6407 1.99464 44.9962 1.2894
lowerback 11.6356 -0.534844 -7.9405
upperback -3.54511 -1.93617 0.266913
thorax -10.1565 -0.410933 5.16285
lowerneck 4.75985 -14.8001 -15.4007
upperneck 6.08811 -21.2603 14.419
head 4.24694 -10.7168 5.75147
rclavicle 6.19152e-014 2.14687e-014
rhumerus -3.95972 -15.9951 -68.7335
rradius 88.0644
rwrist 17.9584
rhand -43.0192 -33.7372
rfingers 7.12502
rthumb -15.8768 -63.1063
lclavicle 6.19152e-014 2.14687e-014
lhumerus -52.9602 -44.558 115.863
lradius 107.054
lwrist 83.6678
lhand 8.42543 38.3001
lfingers 7.12502
lthumb 33.6314 65.1649
rfemur -60.8844 -37.5835 12.4845
rtibia 66.9125
rfoot -1.67845 9.63528
rtoes 7.36926
lfemur -25.2545 30.5537 -12.2023
ltibia 80.5043
lfoot -38.3942 21.6275
ltoes -16.7595
75
root -1.38647 13.8396 -38.6414 1.9882 44.9987 1.27769
lowerback 11.6464 -0.530238 -7.92908
upperback -3.55715 -1.92932 0.271885
thorax -10.1774 -0.406825 5.16114
lowerneck 4.76978 -14.7984 -15.3988
upperneck 6.0922 -21.2589 14.4131
head 4.24549 -10.7165 5.75044
rclavicle 1.758e-015 1.11319e-014
rhumerus -3.97962 -15.995 -68.7214
rradius 88.0741
rwrist 17.9644
rhand -43.0147 -33.7341
rfingers 7.12502
rthumb -15.8726 -63.1036
lclavicle 1.758e-015 1.11319e-014
lhumerus -52.9553 -44.5493 115.848
lradius 107.05
lwrist 83.6589
lhand 8.40664 38.2756
lfingers 7.12502
lthumb 33.6136 65.1443
rfemur -60.8911 -37.5877 12.5012
rtibia 66.908
rfoot -1.67318 9.64097
rtoes 7.37041
lfemur -25.2678 30.5442 -12.1979
ltibia 80.5127
lfoot -38.3982 21.6263
ltoes -16.7324
76
root -1.38759 13.8393 -38.642 1.98249 45.0015 1.26922
lowerback 11.6596 -0.526466 -7.91909
upperback -3.56883 -1.92412 0.275887
thorax -10.1992 -0.403417 5.15956
lowerneck 4.77609 -14.7969 -15.3991
upperneck 6.10051 -21.2579 14.4082
head 4.24633 -10.7162 5.74946
rclavicle 2.55749e-014 -1.03368e-014
rhumerus -3.99743 -15.9947 -68.7144
rradius 88.0811
rwrist 17.9778
rhand -43.0071 -33.7339
rfingers 7.12502
rthumb -15.8652 -63.104
lclavicle 2.55749e-014 -1.03368e-014
lhumerus -52.951 -44.5343 115.827
lradius 107.047
lwrist 83.6534
lhand 8.38574 38.2671
lfingers 7.12502
lthumb 33.5937 65.1401
rfemur -60.8957 -37.591 12.5135
rtibia 66.9044
rfoot -1.66807 9.64524
rtoes 7.38058
lfemur -25.2784 30.5359 -12.1941
ltibia 80.5194
lfoot -38.4022 21.6206
ltoes -16.7014
77
root -1.38876 13.8392 -38.6427 1.97882 45.0045 1.26587
lowerback 11.6743 -0.523833 -7.9112
upperback -3.57949 -1.92097 0.278612
thorax -10.2203 -0.400966 5.1582
lowerneck 4.77775 -14.7952 -15.4017
upperneck 6.11245 -21.2568 14.404
head 4.24931 -10.7157 5.7485
rclavicle -3.09048e-014 9.93923e-015
rhumerus -4.0116 -15.9928 -68.7127
rradius 88.0848
rwrist 17.9954
rhand -42.9947 -33.7356
rfingers 7.12502
rthumb -15.8532 -63.1066
lclavicle -3.09048e-014 9.93923e-015
lhumerus -52.9483 -44.5132 115.802
lradius 107.049
lwrist 83.6489
lhand 8.36258 38.2757
lfingers 7.12502
lthumb 33.5717 65.1535
rfemur -60.8985 -37.5942 12.5204
rtibia 66.9021
rfoot -1.66369 9.64859
rtoes 7.39695
lfemur -25.2855 30.5291 -12.1926
ltibia 80.5235
lfoot -38.406 21.611
ltoes -16.6689
